<svg xmlns="http://www.w3.org/2000/svg" width="175.072" height="58.144" viewBox="0 0 175.072 58.144">
  <g id="Group_161" data-name="Group 161" transform="translate(-320.5 -226.5)" opacity="0.9">
    <rect id="Rectangle_51" data-name="Rectangle 51" width="155.265" height="57.505" rx="1" transform="translate(330.404 226.819)" fill="#f78748"/>
    <g id="Group_4" data-name="Group 4" transform="translate(484.71 226.5)">
      <path id="Polygon_2" data-name="Polygon 2" d="M5.528,1.465a1,1,0,0,1,1.724,0l4.641,7.89a1,1,0,0,1-.862,1.507H1.748A1,1,0,0,1,.886,9.355Z" transform="translate(10.862) rotate(90)" fill="#f78748"/>
      <path id="Polygon_22" data-name="Polygon 22" d="M5.528,1.465a1,1,0,0,1,1.724,0l4.641,7.89a1,1,0,0,1-.862,1.507H1.748A1,1,0,0,1,.886,9.355Z" transform="translate(10.862 45.365) rotate(90)" fill="#f78748"/>
      <path id="Polygon_24" data-name="Polygon 24" d="M5.528,1.465a1,1,0,0,1,1.724,0l4.641,7.89a1,1,0,0,1-.862,1.507H1.748A1,1,0,0,1,.886,9.355Z" transform="translate(10.862 22.363) rotate(90)" fill="#f78748"/>
      <path id="Polygon_23" data-name="Polygon 23" d="M5.528,1.465a1,1,0,0,1,1.724,0l4.641,7.89a1,1,0,0,1-.862,1.507H1.748A1,1,0,0,1,.886,9.355Z" transform="translate(10.862 33.864) rotate(90)" fill="#f78748"/>
      <path id="Polygon_25" data-name="Polygon 25" d="M5.528,1.465a1,1,0,0,1,1.724,0l4.641,7.89a1,1,0,0,1-.862,1.507H1.748A1,1,0,0,1,.886,9.355Z" transform="translate(10.862 10.862) rotate(90)" fill="#f78748"/>
    </g>
    <g id="Group_5" data-name="Group 5" transform="translate(331.362 284.644) rotate(180)">
      <path id="Polygon_2-2" data-name="Polygon 2" d="M5.528,1.465a1,1,0,0,1,1.724,0l4.641,7.89a1,1,0,0,1-.862,1.507H1.748A1,1,0,0,1,.886,9.355Z" transform="translate(10.862) rotate(90)" fill="#f78748"/>
      <path id="Polygon_22-2" data-name="Polygon 22" d="M5.528,1.465a1,1,0,0,1,1.724,0l4.641,7.89a1,1,0,0,1-.862,1.507H1.748A1,1,0,0,1,.886,9.355Z" transform="translate(10.862 45.365) rotate(90)" fill="#f78748"/>
      <path id="Polygon_24-2" data-name="Polygon 24" d="M5.528,1.465a1,1,0,0,1,1.724,0l4.641,7.89a1,1,0,0,1-.862,1.507H1.748A1,1,0,0,1,.886,9.355Z" transform="translate(10.862 22.363) rotate(90)" fill="#f78748"/>
      <path id="Polygon_23-2" data-name="Polygon 23" d="M5.528,1.465a1,1,0,0,1,1.724,0l4.641,7.89a1,1,0,0,1-.862,1.507H1.748A1,1,0,0,1,.886,9.355Z" transform="translate(10.862 33.864) rotate(90)" fill="#f78748"/>
      <path id="Polygon_25-2" data-name="Polygon 25" d="M5.528,1.465a1,1,0,0,1,1.724,0l4.641,7.89a1,1,0,0,1-.862,1.507H1.748A1,1,0,0,1,.886,9.355Z" transform="translate(10.862 10.862) rotate(90)" fill="#f78748"/>
    </g>
  </g>
</svg>
