<svg xmlns="http://www.w3.org/2000/svg" width="234.903" height="83.392" viewBox="0 0 234.903 83.392">
  <g id="Group_162" data-name="Group 162" transform="translate(-837 -246)">
    <g id="b4fc498c-73e4-48ed-a9e2-e039f294fac4" transform="translate(835.956 228.19)">
      <path id="Path_15" data-name="Path 15" d="M13.634,17.81h7.8V60.553h0q0,17.257-20.389,17.257h0V71.546h0q12.59,0,12.59-10.993h0ZM33.163,64.545h0q0-13.572,17.871-13.572h0a78.272,78.272,0,0,1,11.546.86h0V47.656h0q0-7.615-11.914-7.615h0a49.425,49.425,0,0,0-13.941,2.088h0V35.865h0a49.425,49.425,0,0,1,13.941-2.088h0q19.652,0,19.652,13.634h0v30.4h-4.36l-2.7-4.36h0a25.463,25.463,0,0,1-14.371,4.36h0Q33.163,77.81,33.163,64.545Zm17.871-7.308h0q-10.072,0-10.072,7.185h0q0,7.124,7.922,7.124h0a21.793,21.793,0,0,0,13.695-4.3h0V58.1h0A78.273,78.273,0,0,0,51.034,57.236Zm32.733-23.46H91.5V77.81H83.767Zm0-15.967H91.5v7.308H83.767Zm21.617,0h7.738v60h-7.738Zm50.972,15.967h7.8V77.81h-5.343l-1.351-5.589h0q-7.984,5.589-16.09,5.589h0q-15.23,0-15.23-16.4h0V33.777h7.8V61.535h0q0,9.826,9.7,9.826h0q6.694,0,12.712-5.589h0ZM177.175,17.81h7.738v60h-7.738Zm50.972,15.967h7.8V77.81H230.6l-1.351-5.589h0q-7.984,5.589-16.09,5.589h0q-15.23,0-15.23-16.4h0V33.777h7.8V61.535h0q0,9.826,9.7,9.826h0q6.694,0,12.712-5.589h0Z" fill="#fcf9ea"/>
    </g>
    <g id="ce85103e-d036-4064-8f5d-d47686bd3585" transform="translate(863.65 310.842)" opacity="0.46" style="isolation: isolate">
      <path id="Path_17" data-name="Path 17" d="M1.688,6.926.35,6.694l.063-.263H2.594L7.567,14.1V6.895L6.25,6.716l.042-.284H9.348l-.063.284-1.191.169V15.44l-.39.084L2.215,7.232v7.691l1.328.137-.074.337H.434l.042-.306,1.212-.221ZM18.261,10.5h0a6.886,6.886,0,0,0,.379,2.381h0a3.72,3.72,0,0,0,1.138,1.644h0a2.8,2.8,0,0,0,1.791.6h0a2.768,2.768,0,0,0,1.127-.232h0a2.639,2.639,0,0,0,.875-.622h0a3.783,3.783,0,0,0,.622-.885h0a4.768,4.768,0,0,0,.379-1.043h0a4.678,4.678,0,0,0,.126-1.075h0a5.731,5.731,0,0,0-.9-3.361h0A2.823,2.823,0,0,0,21.38,6.621h0a2.859,2.859,0,0,0-1.138.221h0a2.587,2.587,0,0,0-.875.6h0a3.666,3.666,0,0,0-.611.885h0a4.168,4.168,0,0,0-.369,1.054h0A4.951,4.951,0,0,0,18.261,10.5Zm-.79.432h0A4.953,4.953,0,0,1,18.63,7.516h0a3.918,3.918,0,0,1,3.087-1.3h0a3.483,3.483,0,0,1,2.065.611h0a3.751,3.751,0,0,1,1.275,1.654h0a6.345,6.345,0,0,1,.421,2.392h0a5.416,5.416,0,0,1-.169,1.338h0a5.083,5.083,0,0,1-.5,1.264h0a4.59,4.59,0,0,1-.832,1.085h0a3.7,3.7,0,0,1-1.191.748h0a4.361,4.361,0,0,1-1.57.274h0a3.251,3.251,0,0,1-1.97-.632h0a4.037,4.037,0,0,1-1.328-1.7h0A5.834,5.834,0,0,1,17.471,10.93Zm16.2-2.181L33.6,6.431h7.439L40.8,8.823l-.369-.042L40.314,6.8H37.638v8.071l1.275.19-.074.337H35.572l.032-.306,1.264-.221V6.8h-2.56l-.253,2.012Zm26.056,8.987-.158-.316h0a5.3,5.3,0,0,0,1.38-1.707h0a5.56,5.56,0,0,0,.421-2.35h0V6.895l-1.3-.179.042-.284h3.3l-.042.284-1.2.169-.032,5.921h0a10.3,10.3,0,0,1-.126,1.77h0A4.066,4.066,0,0,1,61.6,15.85h0a4,4,0,0,1-.727.98h0a10.343,10.343,0,0,1-1.138.906ZM72.8,6.895l-1.306-.179.032-.284h3.266l-.032.284-1.212.169v4.941h0a5.637,5.637,0,0,0,.19,1.559h0a2.334,2.334,0,0,0,.558,1.011h0a2.307,2.307,0,0,0,.843.527h0a3.173,3.173,0,0,0,1.085.169h0a2.449,2.449,0,0,0,1.918-.748h0a3.18,3.18,0,0,0,.674-2.181h0V6.895l-1.338-.179.032-.284h3.066l-.053.284-1.2.169L79.3,11.868h0a4.313,4.313,0,0,1-.79,2.771h0a3.06,3.06,0,0,1-2.518.948h0a4.782,4.782,0,0,1-.98-.095h0a2.825,2.825,0,0,1-.864-.348h0a2.422,2.422,0,0,1-.706-.632h0a3.079,3.079,0,0,1-.474-1.011h0a5.5,5.5,0,0,1-.169-1.433h0Zm15.878,7.66h0L88.9,12.51l.337.053.211,1.58h0a1.621,1.621,0,0,0,.79.716h0a2.756,2.756,0,0,0,1.191.263h0a1.821,1.821,0,0,0,1.222-.421h0a1.483,1.483,0,0,0,.506-1.191h0a1.64,1.64,0,0,0-.221-.822h0a2.611,2.611,0,0,0-.59-.685h0a9.662,9.662,0,0,0-.811-.579h0q-.443-.284-.885-.59h0a8.069,8.069,0,0,1-.8-.622h0a2.771,2.771,0,0,1-.59-.769h0a2.114,2.114,0,0,1-.221-.959h0a2.044,2.044,0,0,1,.727-1.633h0a2.5,2.5,0,0,1,1.654-.611h0a3.561,3.561,0,0,1,1.191.2h0a2.16,2.16,0,0,1,.917.59h0L93.29,9.265l-.337-.053-.19-1.749h0a1.534,1.534,0,0,0-.643-.579h0a1.851,1.851,0,0,0-.885-.232h0a1.507,1.507,0,0,0-1.064.4h0a1.442,1.442,0,0,0-.432,1.1h0a1.752,1.752,0,0,0,.232.875h0a2.553,2.553,0,0,0,.6.716h0q.369.306.822.611h0q.443.3.9.59h0a7.806,7.806,0,0,1,.822.611h0a2.64,2.64,0,0,1,.6.738h0a1.811,1.811,0,0,1,.232.885h0a2.189,2.189,0,0,1-.79,1.728h0a3.12,3.12,0,0,1-2.1.674h0a3.4,3.4,0,0,1-1.391-.284h0A2.583,2.583,0,0,1,88.675,14.555ZM102.14,8.749l-.063-2.318h7.439l-.253,2.392-.358-.042L108.778,6.8H106.1v8.071l1.275.19-.074.337h-3.266l.042-.306,1.254-.221V6.8h-2.56l-.253,2.012Zm25.951,5.805h0l.211-2.044.348.053.2,1.58h0a1.679,1.679,0,0,0,.8.716h0a2.756,2.756,0,0,0,1.191.263h0a1.846,1.846,0,0,0,1.222-.421h0a1.483,1.483,0,0,0,.506-1.191h0a1.583,1.583,0,0,0-.232-.822h0a2.374,2.374,0,0,0-.59-.685h0a8.428,8.428,0,0,0-.8-.579h0q-.442-.284-.885-.59h0a6.711,6.711,0,0,1-.8-.622h0a2.528,2.528,0,0,1-.59-.769h0a2.035,2.035,0,0,1-.232-.959h0a2.032,2.032,0,0,1,.738-1.633h0a2.5,2.5,0,0,1,1.654-.611h0a3.561,3.561,0,0,1,1.191.2h0a2.16,2.16,0,0,1,.917.59h0L132.7,9.265l-.327-.053-.2-1.749h0a1.461,1.461,0,0,0-.632-.579h0a1.912,1.912,0,0,0-.9-.232h0a1.493,1.493,0,0,0-1.054.4h0a1.424,1.424,0,0,0-.443,1.1h0a1.752,1.752,0,0,0,.232.875h0a2.715,2.715,0,0,0,.611.716h0q.369.306.811.611h0q.453.3.9.59h0a7.807,7.807,0,0,1,.822.611h0a2.56,2.56,0,0,1,.611.738h0a1.811,1.811,0,0,1,.232.885h0a2.189,2.189,0,0,1-.79,1.728h0a3.136,3.136,0,0,1-2.107.674h0a3.324,3.324,0,0,1-1.38-.284h0A2.583,2.583,0,0,1,128.091,14.555Zm13.465-5.805-.074-2.318h7.439l-.253,2.392-.358-.042L148.194,6.8h-2.676v8.071l1.275.19-.084.337h-3.256l.032-.306,1.264-.221V6.8h-2.571l-.242,2.012Zm19.766-1.17-1.433,3.972h2.824Zm-1.38,7.818h-2.876l.032-.306,1.022-.221,3.161-8.513.379-.095,2.992,8.661.948.137-.063.327H162.6l.063-.306,1.191-.211-1-2.919h-3.108l-1.064,2.971,1.328.137Zm14.751-8.482-1.011-.211.032-.263h3l-.021.263-1.2.179,2.255,4.394,2.234-4.373-1.338-.211.021-.263h2.8l-.021.263-.927.19-2.508,4.984v3.045l1.3.148-.053.337h-3.319l.053-.306,1.254-.221v-3Z" fill="#707070" stroke="#707070" stroke-width="1.093"/>
    </g>
  </g>
</svg>
